<svg width="149" height="151" viewBox="0 0 149 151" fill="none" xmlns="http://www.w3.org/2000/svg">
<rect width="149" height="151" rx="20" fill="#FFD9D9"/>
<path d="M47.4711 75C49.5044 75.4333 51.1378 76.45 52.3711 78.05C53.6044 79.6167 54.2211 81.4167 54.2211 83.45C54.2211 86.3833 53.1878 88.7167 51.1211 90.45C49.0878 92.15 46.2378 93 42.5711 93H26.2211V57.9H42.0211C45.5878 57.9 48.3711 58.7167 50.3711 60.35C52.4044 61.9833 53.4211 64.2 53.4211 67C53.4211 69.0667 52.8711 70.7833 51.7711 72.15C50.7044 73.5167 49.2711 74.4667 47.4711 75ZM34.7711 72.1H40.3711C41.7711 72.1 42.8378 71.8 43.5711 71.2C44.3378 70.5667 44.7211 69.65 44.7211 68.45C44.7211 67.25 44.3378 66.3333 43.5711 65.7C42.8378 65.0667 41.7711 64.75 40.3711 64.75H34.7711V72.1ZM41.0711 86.1C42.5044 86.1 43.6044 85.7833 44.3711 85.15C45.1711 84.4833 45.5711 83.5333 45.5711 82.3C45.5711 81.0667 45.1544 80.1 44.3211 79.4C43.5211 78.7 42.4044 78.35 40.9711 78.35H34.7711V86.1H41.0711ZM67.5801 57.9V78.9C67.5801 81 68.0967 82.6167 69.1301 83.75C70.1634 84.8833 71.6801 85.45 73.6801 85.45C75.6801 85.45 77.2134 84.8833 78.2801 83.75C79.3467 82.6167 79.8801 81 79.8801 78.9V57.9H88.4301V78.85C88.4301 81.9833 87.7634 84.6333 86.4301 86.8C85.0967 88.9667 83.2967 90.6 81.0301 91.7C78.7967 92.8 76.2967 93.35 73.5301 93.35C70.7634 93.35 68.2801 92.8167 66.0801 91.75C63.9134 90.65 62.1967 89.0167 60.9301 86.85C59.6634 84.65 59.0301 81.9833 59.0301 78.85V57.9H67.5801ZM124.534 57.9L112.384 81.4V93H103.834V81.4L91.684 57.9H101.384L108.184 72.6L114.934 57.9H124.534Z" fill="#FF0000"/>
</svg>
