<svg width="152" height="25" viewBox="0 0 152 25" fill="none" xmlns="http://www.w3.org/2000/svg">
<path d="M12.3164 5.62695C8.45041 5.62695 5.31641 8.76096 5.31641 12.627C5.31641 16.4929 8.45041 19.627 12.3164 19.627C15.1088 19.627 17.5193 17.9919 18.6428 15.627H21.3164H22.9023C21.5965 20.244 17.3515 23.627 12.3164 23.627C6.24127 23.627 1.31641 18.7021 1.31641 12.627C1.31641 6.55182 6.24127 1.62695 12.3164 1.62695C17.3515 1.62695 21.5965 5.00994 22.9023 9.62695H21.3164H18.6428C17.5193 7.26201 15.1088 5.62695 12.3164 5.62695Z" fill="url(#paint0_linear_334_344)"/>
<path d="M43.5884 5.28295H45.7004V7.47495H43.5884V5.28295ZM43.4604 7.61895H45.3324V7.90695C45.3324 10.259 43.2044 11.971 39.1884 12.291L38.5164 10.675C42.0524 10.419 43.4604 9.15495 43.4604 7.90695V7.61895ZM43.9564 7.61895H45.8284V7.90695C45.8284 9.15495 47.2204 10.419 50.7724 10.675L50.1004 12.291C46.0844 11.971 43.9564 10.259 43.9564 7.90695V7.61895ZM39.2364 6.67495H50.0684V8.30695H39.2364V6.67495ZM37.9564 12.883H51.3644V14.563H37.9564V12.883ZM43.7644 13.795H45.9084V16.931H43.7644V13.795ZM39.5084 18.099H49.8924V19.795H39.5084V18.099ZM39.5084 15.667H41.6204V18.787H39.5084V15.667ZM63.8512 5.25095H65.9952V13.603H63.8512V5.25095ZM56.1392 14.291H65.9952V19.891H56.1392V14.291ZM63.8992 15.955H58.2192V18.211H63.8992V15.955ZM57.1472 5.77895H58.9072V7.20295C58.9072 9.95495 57.5312 12.451 54.6352 13.363L53.6112 11.683C56.0912 10.915 57.1472 9.02695 57.1472 7.20295V5.77895ZM57.5792 5.77895H59.3232V7.20295C59.3232 8.99495 60.3632 10.723 62.7632 11.443L61.7392 13.091C58.9072 12.243 57.5792 9.92295 57.5792 7.20295V5.77895ZM84.4137 5.25095H86.5577V13.603H84.4137V5.25095ZM76.7017 14.291H86.5577V19.891H76.7017V14.291ZM84.4617 15.955H78.7817V18.211H84.4617V15.955ZM77.7097 5.77895H79.4697V7.20295C79.4697 9.95495 78.0937 12.451 75.1977 13.363L74.1737 11.683C76.6537 10.915 77.7097 9.02695 77.7097 7.20295V5.77895ZM78.1417 5.77895H79.8857V7.20295C79.8857 8.99495 80.9257 10.723 83.3257 11.443L82.3017 13.091C79.4697 12.243 78.1417 9.92295 78.1417 7.20295V5.77895ZM89.9564 13.763H103.38V15.443H89.9564V13.763ZM95.5564 14.611H97.6684V20.051H95.5564V14.611ZM91.4924 5.79495H93.6044V7.47495H99.6844V5.79495H101.796V12.355H91.4924V5.79495ZM93.6044 9.13895V10.659H99.6844V9.13895H93.6044ZM105.675 12.707H119.099V14.387H105.675V12.707ZM107.323 5.50695H117.467V9.47495H109.451V11.091H107.339V7.97095H115.371V7.12295H107.323V5.50695ZM107.339 10.307H117.755V11.923H107.339V10.307ZM107.371 15.283H117.547V19.891H107.371V15.283ZM115.451 16.947H109.451V18.211H115.451V16.947ZM127.282 8.61095H129.634V10.323H127.282V8.61095ZM132.002 5.23495H134.018V16.323H132.002V5.23495ZM129.042 5.47495H131.042V15.875H129.042V5.47495ZM124.05 18.099H134.402V19.795H124.05V18.099ZM124.05 15.027H126.178V19.171H124.05V15.027ZM124.002 6.22695H125.666V8.13095C125.666 10.739 124.706 13.315 122.354 14.419L121.202 12.803C123.218 11.811 124.002 9.89095 124.002 8.13095V6.22695ZM124.434 6.22695H126.066V8.13095C126.066 9.84295 126.77 11.539 128.626 12.435L127.458 14.051C125.266 13.027 124.434 10.659 124.434 8.13095V6.22695ZM147.433 5.21895H149.545V20.083H147.433V5.21895ZM144.889 10.435H147.673V12.163H144.889V10.435ZM137.785 15.011H138.969C141.417 15.011 143.241 14.979 145.337 14.643L145.529 16.339C143.385 16.675 141.465 16.739 138.969 16.739H137.785V15.011ZM137.785 6.46695H144.649V8.19495H139.897V15.555H137.785V6.46695ZM139.417 10.595H144.137V12.259H139.417V10.595Z" fill="#242731"/>
<defs>
<linearGradient id="paint0_linear_334_344" x1="16.9662" y1="1.62695" x2="11.9306" y2="23.586" gradientUnits="userSpaceOnUse">
<stop stop-color="#9ECBFF"/>
<stop offset="0.411458" stop-color="#6FA0FF"/>
<stop offset="1" stop-color="#AF93FF"/>
</linearGradient>
</defs>
</svg>
