<svg width="149" height="151" viewBox="0 0 149 151" fill="none" xmlns="http://www.w3.org/2000/svg">
<rect width="149" height="151" rx="20" fill="#0038FF" fill-opacity="0.2"/>
<path d="M44.2678 93.35C41.7011 93.35 39.4011 92.9333 37.3678 92.1C35.3344 91.2667 33.7011 90.0333 32.4678 88.4C31.2678 86.7667 30.6344 84.8 30.5678 82.5H39.6678C39.8011 83.8 40.2511 84.8 41.0178 85.5C41.7844 86.1667 42.7844 86.5 44.0178 86.5C45.2844 86.5 46.2844 86.2167 47.0178 85.65C47.7511 85.05 48.1178 84.2333 48.1178 83.2C48.1178 82.3333 47.8178 81.6167 47.2178 81.05C46.6511 80.4833 45.9344 80.0167 45.0678 79.65C44.2344 79.2833 43.0344 78.8667 41.4678 78.4C39.2011 77.7 37.3511 77 35.9178 76.3C34.4844 75.6 33.2511 74.5667 32.2178 73.2C31.1844 71.8333 30.6678 70.05 30.6678 67.85C30.6678 64.5833 31.8511 62.0333 34.2178 60.2C36.5844 58.3333 39.6678 57.4 43.4678 57.4C47.3344 57.4 50.4511 58.3333 52.8178 60.2C55.1844 62.0333 56.4511 64.6 56.6178 67.9H47.3678C47.3011 66.7667 46.8844 65.8833 46.1178 65.25C45.3511 64.5833 44.3678 64.25 43.1678 64.25C42.1344 64.25 41.3011 64.5333 40.6678 65.1C40.0344 65.6333 39.7178 66.4167 39.7178 67.45C39.7178 68.5833 40.2511 69.4667 41.3178 70.1C42.3844 70.7333 44.0511 71.4167 46.3178 72.15C48.5844 72.9167 50.4178 73.65 51.8178 74.35C53.2511 75.05 54.4844 76.0667 55.5178 77.4C56.5511 78.7333 57.0678 80.45 57.0678 82.55C57.0678 84.55 56.5511 86.3667 55.5178 88C54.5178 89.6333 53.0511 90.9333 51.1178 91.9C49.1844 92.8667 46.9011 93.35 44.2678 93.35ZM88.6295 78.6C88.6295 79.4 88.5795 80.2333 88.4795 81.1H69.1295C69.2628 82.8333 69.8128 84.1667 70.7795 85.1C71.7795 86 72.9962 86.45 74.4295 86.45C76.5628 86.45 78.0462 85.55 78.8795 83.75H87.9795C87.5128 85.5833 86.6628 87.2333 85.4295 88.7C84.2295 90.1667 82.7128 91.3167 80.8795 92.15C79.0462 92.9833 76.9962 93.4 74.7295 93.4C71.9962 93.4 69.5628 92.8167 67.4295 91.65C65.2962 90.4833 63.6295 88.8167 62.4295 86.65C61.2295 84.4833 60.6295 81.95 60.6295 79.05C60.6295 76.15 61.2128 73.6167 62.3795 71.45C63.5795 69.2833 65.2462 67.6167 67.3795 66.45C69.5128 65.2833 71.9628 64.7 74.7295 64.7C77.4295 64.7 79.8295 65.2667 81.9295 66.4C84.0295 67.5333 85.6628 69.15 86.8295 71.25C88.0295 73.35 88.6295 75.8 88.6295 78.6ZM79.8795 76.35C79.8795 74.8833 79.3795 73.7167 78.3795 72.85C77.3795 71.9833 76.1295 71.55 74.6295 71.55C73.1962 71.55 71.9795 71.9667 70.9795 72.8C70.0128 73.6333 69.4128 74.8167 69.1795 76.35H79.8795ZM101.69 56V93H93.14V56H101.69ZM116.436 56V93H107.886V56H116.436Z" fill="#0038FF"/>
</svg>
